<?xml version="1.0" encoding="UTF-8" standalone="no"?>
<!-- Generator: Adobe Illustrator 17.1.0, SVG Export Plug-In . SVG Version: 6.00 Build 0)  -->

<svg
   xmlns:dc="http://purl.org/dc/elements/1.1/"
   xmlns:cc="http://creativecommons.org/ns#"
   xmlns:rdf="http://www.w3.org/1999/02/22-rdf-syntax-ns#"
   xmlns:svg="http://www.w3.org/2000/svg"
   xmlns="http://www.w3.org/2000/svg"
   xmlns:sodipodi="http://sodipodi.sourceforge.net/DTD/sodipodi-0.dtd"
   xmlns:inkscape="http://www.inkscape.org/namespaces/inkscape"
   version="1.1"
   id="_x2014_ÎÓÈ_1"
   x="0px"
   y="0px"
   width="720px"
   height="720px"
   viewBox="0 0 720 720"
   enable-background="new 0 0 720 720"
   xml:space="preserve"
   sodipodi:docname="captor.svg"
   inkscape:version="0.92.2 2405546, 2018-03-11"><metadata
   id="metadata23"><rdf:RDF><cc:Work
       rdf:about=""><dc:format>image/svg+xml</dc:format><dc:type
         rdf:resource="http://purl.org/dc/dcmitype/StillImage" /><dc:title></dc:title></cc:Work></rdf:RDF></metadata><defs
   id="defs21">
	
	
	
	
	
	
	
</defs><sodipodi:namedview
   pagecolor="#ffffff"
   bordercolor="#666666"
   borderopacity="1"
   objecttolerance="10"
   gridtolerance="10"
   guidetolerance="10"
   inkscape:pageopacity="0"
   inkscape:pageshadow="2"
   inkscape:window-width="1831"
   inkscape:window-height="1352"
   id="namedview19"
   showgrid="false"
   inkscape:zoom="0.46354778"
   inkscape:cx="-76.496407"
   inkscape:cy="340.27546"
   inkscape:window-x="1391"
   inkscape:window-y="586"
   inkscape:window-maximized="0"
   inkscape:current-layer="_x2014_ÎÓÈ_1" />
<path
   style="clip-rule:evenodd;fill:#dae1e6;fill-rule:evenodd"
   inkscape:connector-curvature="0"
   id="path2"
   d="m 250.4,563.9 c -49.7,-60.1 -49.6,-147.3 0.1,-207.3 5.7,-6.8 5.2,-16.7 -1,-22.9 l -16.1,-16.1 c -3.5,-3.5 -7.8,-5.2 -12.8,-5 -4.9,0.2 -9.1,2.3 -12.3,6.1 -69.1,81.5 -69.1,201.7 -0.1,283.3 3.2,3.8 7.3,5.8 12.3,6.1 4.9,0.2 9.3,-1.5 12.8,-5 l 16.1,-16 c 6.2,-6.5 6.7,-16.4 1,-23.2 z" /><path
   style="clip-rule:evenodd;fill:#dae1e6;fill-rule:evenodd"
   inkscape:connector-curvature="0"
   id="path4"
   d="m 168.3,644.8 c -93.2,-105.2 -93.1,-264 0.2,-369.1 6.3,-7.2 6,-18 -0.7,-24.8 l -17.1,-17 c -3.6,-3.6 -8.1,-5.5 -13.3,-5.3 -5.2,0.2 -9.5,2.2 -13,6 -114.8,128.2 -114.9,323 -0.2,451.3 3.4,3.9 7.8,5.9 13,6 5.2,0.2 9.7,-1.6 13.3,-5.3 l 17,-17 c 6.8,-6.8 7.1,-17.6 0.8,-24.8 z" /><path
   style="clip-rule:evenodd;fill:#dae1e6;fill-rule:evenodd"
   inkscape:connector-curvature="0"
   id="path6"
   d="m 469.1,564 c 49.7,-60 49.7,-147.3 0.1,-207.3 -5.7,-6.8 -5.2,-16.7 1.1,-22.9 l 16.1,-16.1 c 3.5,-3.5 7.8,-5.2 12.8,-5 5,0.2 9.2,2.3 12.4,6.1 69,81.6 68.9,201.8 -0.1,283.3 -3.2,3.8 -7.4,5.8 -12.4,6 -4.9,0.2 -9.3,-1.5 -12.8,-5 L 470.2,587 c -6.3,-6.2 -6.7,-16.2 -1.1,-23 z" /><path
   style="clip-rule:evenodd;fill:#dae1e6;fill-rule:evenodd"
   inkscape:connector-curvature="0"
   id="path8"
   d="m 551.2,644.9 c 93.3,-105.1 93.3,-263.9 0.2,-369.1 -6.4,-7.1 -6.1,-18 0.7,-24.8 l 17.1,-17 c 3.7,-3.6 8.1,-5.4 13.3,-5.3 5.2,0.1 9.5,2.2 13,6 114.7,128.4 114.6,323.1 -0.2,451.3 -3.5,3.9 -7.9,5.9 -13,6 -5.2,0.2 -9.7,-1.7 -13.3,-5.3 l -17,-17 c -6.9,-6.7 -7.2,-17.6 -0.8,-24.8 z" /><path
   style="clip-rule:evenodd;fill:#3d566e;fill-rule:evenodd"
   inkscape:connector-curvature="0"
   id="path10"
   d="m 411.55727,374.34214 c 0.3,27.4 -22.4,49.8 -49.6,49.8 -27.4,0 -49.6,-22.2 -49.5,-49.6 0,-132.4 0,-163.4 0.1,-295.799998 0,-27.4 22.2,-49.600002 49.6,-49.500002 27.3,0 49.8,22.200002 49.5,49.600002 -1.5,131.899998 -0.1,163.599998 -0.1,295.499998 z" /><path
   style="clip-rule:evenodd;fill:#3d566e;fill-opacity:1;fill-rule:evenodd;stroke-width:1.55791605"
   inkscape:connector-curvature="0"
   id="path14"
   d="m 361.98068,559.74504 c 54.99444,0 99.39504,-44.4006 99.55083,-99.39504 0,-54.83863 -44.55639,-99.39503 -99.39503,-99.39503 -54.99443,0 -99.55083,44.40061 -99.55083,99.39503 0,54.99444 44.5564,99.39504 99.39503,99.39504 z" />
<path
   style="clip-rule:evenodd;fill:#020000;fill-opacity:1;fill-rule:evenodd;stroke-width:0.18673818"
   inkscape:connector-curvature="0"
   id="path10-6-5"
   d="m 356.96233,336.4462 c -5.11662,0.056 -9.29956,-4.18294 -9.29956,-9.26221 0,-5.11663 4.14559,-9.26222 9.26221,-9.24354 24.72414,0 30.51302,0 55.23716,0.0187 5.11662,0 9.26221,4.14559 9.24354,9.26221 0,5.09795 -4.14559,9.29956 -9.26222,9.24354 -24.63077,-0.28011 -30.55036,-0.0187 -55.18113,-0.0187 z" /><path
   style="clip-rule:evenodd;fill:#020000;fill-opacity:1;fill-rule:evenodd;stroke-width:0.18673818"
   inkscape:connector-curvature="0"
   id="path10-6-5-3"
   d="m 356.96233,273.96604 c -5.11662,0.056 -9.29956,-4.18294 -9.29956,-9.26222 0,-5.11663 4.14559,-9.26222 9.26221,-9.24354 24.72414,0 30.51302,0 55.23716,0.0187 5.11662,0 9.26221,4.14559 9.24354,9.26221 0,5.09796 -4.14559,9.29957 -9.26222,9.24355 -24.63077,-0.28011 -30.55036,-0.0187 -55.18113,-0.0187 z" /><path
   style="clip-rule:evenodd;fill:#020000;fill-opacity:1;fill-rule:evenodd;stroke-width:0.18673818"
   inkscape:connector-curvature="0"
   id="path10-6-5-5"
   d="m 356.96233,211.48587 c -5.11662,0.056 -9.29956,-4.18294 -9.29956,-9.26221 0,-5.11663 4.14559,-9.26222 9.26221,-9.24354 24.72414,0 30.51302,0 55.23716,0.0187 5.11662,0 9.26221,4.14559 9.24354,9.26221 0,5.09795 -4.14559,9.29956 -9.26222,9.24354 -24.63077,-0.28011 -30.55036,-0.0187 -55.18113,-0.0187 z" /></svg>